<svg viewBox="0 0 96 96" xmlns="http://www.w3.org/2000/svg" xmlns:xlink="http://www.w3.org/1999/xlink" id="Icons_SurgicalMask" overflow="hidden"><path d="M89.081 26.5889C85.7431 25.0684 82.0493 26.2083 78.0412 29.9307 74.102 27.7624 62.2909 22 48.0048 22 33.808 22 22.057 27.6899 18.0449 29.8894 14.0539 26.2004 10.3752 25.0747 7.05068 26.5889 5.31847 27.36 4.00349 28.8414 3.44326 30.6529 1.98726 35.1426 4.14926 42.3731 10.0517 52.7589 12.051 56.3069 14.3984 59.6473 17.0592 62.7305L17.0966 63.3106 18.1259 64.1378C26.8005 70.4863 37.2564 73.9373 48.0058 74 58.7551 73.9373 69.211 70.4862 77.8856 64.1377L78.9149 63.3106 78.9429 62.8769C81.658 59.7542 84.0492 56.3642 86.08 52.7588 91.9823 42.3726 94.1435 35.1416 92.6884 30.6528 92.1282 28.8414 90.8132 27.36 89.081 26.5889ZM13.5292 50.7822C6.65517 38.687 6.64346 33.752 7.248 31.8862 7.45638 31.1405 7.99356 30.5305 8.707 30.2295 10.3836 29.468 12.5872 30.3384 15.1173 32.6238L16.6025 55.6506C15.5271 54.113 14.4939 52.4795 13.5292 50.7822ZM73.1024 60.1982C65.6689 65.1743 56.9503 67.8846 48.0058 68 39.0612 67.8848 30.3425 65.1745 22.9091 60.1982L21.2812 34.9688C25.1093 32.936 35.6737 28 48.0048 28 60.3378 28 70.9052 32.9375 74.7304 34.9688ZM82.6014 50.7822C81.5985 52.5474 80.5199 54.24 79.3973 55.8315L80.887 32.7373C83.4699 30.3662 85.7191 29.4534 87.4247 30.2295 88.1382 30.5305 88.6753 31.1405 88.8837 31.8862 89.4882 33.751 89.4765 38.6865 82.6015 50.7822Z"/><path d="M29.0741 39.8052C29.3609 40.8717 30.458 41.5038 31.5246 41.217 31.5248 41.2169 31.525 41.2169 31.5253 41.2168 42.3154 38.2751 53.6962 38.2752 64.4862 41.2173 65.5518 41.5079 66.6512 40.8797 66.9418 39.8141 67.2324 38.7486 66.6042 37.6492 65.5386 37.3586 65.5342 37.3574 65.5297 37.3562 65.5253 37.355 54.0546 34.2301 41.957 34.2299 30.4862 37.3545 29.4196 37.6413 28.7873 38.7385 29.0741 39.8052Z"/><path d="M62.0048 50C63.1093 50 64.0048 49.1046 64.0048 48 64.0048 46.8954 63.1093 46 62.0048 46L34.0048 46C32.9002 46 32.0048 46.8954 32.0048 48 32.0048 49.1046 32.9002 50 34.0048 50Z"/><path d="M64.4862 54.7832C53.6961 57.7246 42.3154 57.7246 31.5253 54.7832 30.4592 54.4947 29.361 55.125 29.0725 56.1912 28.784 57.2573 29.4143 58.3554 30.4804 58.644 30.4824 58.6445 30.4843 58.645 30.4862 58.6455 36.1972 60.1954 42.0873 60.987 48.0048 61 53.9229 60.9867 59.8136 60.195 65.5253 58.6455 66.5923 58.3602 67.2259 57.2639 66.9406 56.1969 66.6553 55.13 65.559 54.4963 64.492 54.7816 64.4901 54.7822 64.4882 54.7827 64.4862 54.7832Z"/></svg>