<svg viewBox="0 0 96 96" xmlns="http://www.w3.org/2000/svg" xmlns:xlink="http://www.w3.org/1999/xlink" id="Icons_ThumbsDown_M" overflow="hidden"><g id="Icons"><path d="M84.114 43.405C84.1099 43.4023 84.1087 43.3967 84.1115 43.3925 84.1121 43.3915 84.113 43.3907 84.114 43.39 86.5198 41.1362 86.643 37.3588 84.3892 34.953 83.5644 34.0727 82.4922 33.4629 81.314 33.204 81.3096 33.2007 81.3087 33.1944 81.312 33.19 81.3126 33.1892 81.3132 33.1886 81.314 33.188 82.409 32.0707 83.0154 30.5643 83 29 82.9901 25.6904 80.3096 23.0099 77 23L76.423 23C76.4175 22.9999 76.4131 22.9954 76.4131 22.9899 76.4132 22.9873 76.4142 22.9848 76.416 22.983 77.453 21.919 78.0231 20.4856 78 19 77.9901 15.6904 75.3096 13.0099 72 13L54 13C40.6 13 40.1 21 33 21L29 21 29 20C28.9929 17.7938 27.2062 16.0071 25 16L8 16 8 58 25 58C27.2062 57.9929 28.9929 56.2062 29 54L29 53 31.146 53C32.4168 52.9987 33.6649 53.337 34.761 53.98 39.3 56.644 51 64.64 51 77 51.0276 80.3137 53.7363 82.9776 57.05 82.95 60.3637 82.9224 63.0276 80.2137 63 76.9 62.987 63.279 60.1 59.692 60 57.9 60.0823 56.2951 61.3932 55.0279 63 55L82 55C85.3096 54.9901 87.9901 52.3096 88 49 88.03 46.4972 86.4697 44.2508 84.114 43.405ZM27 53.994C26.9951 55.0975 26.1035 55.9918 25 56L10 56 10 18 25 18C26.1009 18.0087 26.9913 18.8991 27 20L27 53.994ZM82 53 62.965 53C60.3085 53.0532 58.1429 55.1468 58 57.8 57.996 57.8713 57.996 57.9427 58 58.014 58.093 58.8311 58.3028 59.6306 58.623 60.388 59.447 62.7 60.975 67 61 76.758 61.1337 78.9631 59.4544 80.859 57.2493 80.9927 57.1663 80.9977 57.0832 81.0002 57 81 54.7909 81 53 79.2091 53 77 53 63.8 40.958 55.3 35.781 52.259 34.3756 51.4343 32.7755 50.9996 31.146 51L29 51 29 23 33 23C36.679 23 38.95 21.228 41.147 19.514 43.992 17.3 46.933 15 54 15L72 15C74.2135 15.0187 75.9984 16.8175 76 19.031 76.0135 19.9899 75.6439 20.9146 74.973 21.6 74.1998 22.3888 74.2125 23.6551 75.0013 24.4283 75.3748 24.7944 75.8769 24.9997 76.4 25L76.994 25C79.2058 25.0137 80.9935 26.8071 81 29.019 81.0085 30.0583 80.6043 31.0585 79.876 31.8 79.1003 32.5864 79.1091 33.8527 79.8955 34.6284 80.1654 34.8946 80.5055 35.0786 80.876 35.159 83.018 35.6245 84.3771 37.7384 83.9115 39.8804 83.7397 40.6712 83.3302 41.3905 82.738 41.942 81.9299 42.6951 81.8854 43.9606 82.6384 44.7687 82.8568 45.003 83.1283 45.1814 83.43 45.289 84.991 45.8471 86.024 47.3364 86 48.994 85.9885 51.1994 84.2053 52.9852 82 53Z"/></g></svg>