<svg viewBox="0 0 96 96" xmlns="http://www.w3.org/2000/svg" xmlns:xlink="http://www.w3.org/1999/xlink" id="Icons_Battery" overflow="hidden"><path d="M62.002 55 66.002 55 66.002 50 71.002 50 71.002 46 66.002 46 66.002 41 62.002 41 62.002 46 57.002 46 57.002 50 62.002 50 62.002 55Z"/><rect x="17.002" y="46" width="14" height="4"/><path d="M88 39 84 39 84 28C84 25.7909 82.2091 24 80 24L8 24C5.79086 24 4 25.7909 4 28L4 68C4 70.2091 5.79086 72 8 72L80 72C82.2091 72 84 70.2091 84 68L84 57 88 57C90.2091 57 92 55.2091 92 53L92 43C92 40.7909 90.2091 39 88 39ZM78 66 10 66 10 30 78 30Z"/></svg>