<svg viewBox="0 0 96 96" xmlns="http://www.w3.org/2000/svg" xmlns:xlink="http://www.w3.org/1999/xlink" id="Icons_Bitcoin" overflow="hidden"><path d="M61.08 43C67.6976 36.3399 67.6632 25.5761 61.003 18.9585 58.7948 16.7643 56.0265 15.2187 53 14.49L53 5 47 5 47 14 41 14 41 5 35 5 35 14 21 14 21 20 27 20 27 76 21 76 21 82 35 82 35 91 41 91 41 82 47 82 47 91 53 91 53 82 55 82C66.0453 81.91 74.9264 72.883 74.8364 61.8377 74.7664 53.2577 69.2315 45.6783 61.08 43ZM49 20C55.0751 20 60 24.9249 60 31 60 37.0751 55.0751 42 49 42L33 42 33 20ZM55 76 33 76 33 48 55 48C62.732 48 69 54.268 69 62 69 69.732 62.732 76 55 76Z"/></svg>