<svg viewBox="0 0 96 96" xmlns="http://www.w3.org/2000/svg" xmlns:xlink="http://www.w3.org/1999/xlink" id="Icons_GrinFaceWithTearsOfJoy_Outline" overflow="hidden"><path d="M48 14C66.8 14 82 29.2 82 48 82 66.8 66.8 82 48 82 29.2 82 14 66.8 14 48 14 29.2 29.2 14 48 14M48 10C27 10 10 27 10 48 10 69 27 86 48 86 69 86 86 69 86 48L86 48C86 27 69 10 48 10Z"/><path d="M75.4 58.3C73.5 59.2 71.2 58.3 70.3 56.4 69.5 54.7 70.4 49.2 70.6 48 70.6 48 70.5 48 70.5 48 69.6 48 68.7 47.3 68.5 46.4 67.8 43.2 64.6 41.1 61.4 41.8 59.1 42.3 57.3 44.1 56.8 46.4 56.6 47.5 55.5 48.2 54.4 47.9 53.3 47.6 52.6 46.6 52.9 45.5L52.9 45.5C54.1 40.1 59.4 36.7 64.8 37.8 68.7 38.6 71.7 41.6 72.5 45.5 72.7 46.5 72.1 47.6 71 47.8 72.2 48.6 76.6 51.4 77.4 53.1 78.3 55.2 77.4 57.5 75.4 58.3 75.4 58.3 75.4 58.3 75.4 58.3Z"/><path d="M22.7 34.1C26.1 29 31.8 25.9 37.9 26 39 26 39.9 27 39.8 28.1 39.8 29.2 38.8 30.1 37.7 30 33 30 28.6 32.4 26 36.3 25.4 37.2 24.2 37.5 23.2 36.9 22.4 36.2 22.1 35 22.7 34.1Z"/><path d="M57.3 25.9C57.7 25.9 67.1 25.6 72.5 34 73.1 34.9 72.8 36.2 71.9 36.8 71 37.4 69.7 37.1 69.1 36.2 66.5 32.3 62.1 29.9 57.4 29.9 56.3 29.9 55.4 29.1 55.3 28 55.2 26.9 56.2 26 57.3 25.9Z"/><path d="M20.6 58.3C18.7 57.4 17.8 55.1 18.7 53.2 18.7 53.2 18.7 53.2 18.7 53.2 19.5 51.5 24.1 48.6 25.2 47.9 24.2 47.6 23.7 46.6 23.9 45.6 25.1 40.2 30.4 36.8 35.8 37.9 39.7 38.7 42.7 41.7 43.5 45.6 43.7 46.7 43 47.7 42 48 42 48 42 48 42 48 41.9 48 41.7 48 41.6 48 40.7 48 39.8 47.3 39.6 46.4 38.9 43.2 35.7 41.1 32.5 41.8 30.2 42.3 28.4 44.1 27.9 46.4 27.7 47.5 26.6 48.2 25.6 47.9 25.8 49.1 26.7 54.6 25.9 56.3 24.9 58.3 22.6 59.2 20.6 58.3 20.6 58.3 20.6 58.3 20.6 58.3Z"/><path d="M48 76C38.5 76 29.7 70.6 25.5 62L70.4 62C66.3 70.6 57.5 76 48 76Z"/></svg>