<svg viewBox="0 0 96 96" xmlns="http://www.w3.org/2000/svg" xmlns:xlink="http://www.w3.org/1999/xlink" id="Icons_CalligraphyPen" overflow="hidden"><path d="M39.4 54.24C29.382 64.234 22.424 65.526 22.424 65.526 21.0983 73.7605 17.8463 81.5653 12.933 88.305L15.073 90.446 28.5 77.018C27.9169 75.654 28.55 74.0755 29.914 73.4924 31.278 72.9093 32.8565 73.5424 33.4396 74.9064 34.0227 76.2704 33.3896 77.8489 32.0256 78.432 31.3512 78.7203 30.5883 78.7203 29.914 78.432L16.487 91.86 18.627 94C25.3668 89.0863 33.1721 85.8344 41.407 84.509 41.407 84.509 42.691 77.542 52.685 67.529Z"/><path d="M84 1.921C72.1 14.721 40.39 49.481 40.39 49.481L57.474 66.566C57.474 66.566 81.232 40.773 84 38.23Z"/></svg>