<svg viewBox="0 0 96 96" xmlns="http://www.w3.org/2000/svg" xmlns:xlink="http://www.w3.org/1999/xlink" id="Icons_RadioactiveSign" overflow="hidden"><path d="M90.55 80 51.47 12C50.3711 10.0836 47.9267 9.42084 46.0103 10.5197 45.3942 10.873 44.8833 11.3839 44.53 12L5.45 80C4.34543 81.9132 5.00093 84.3595 6.9141 85.4641 7.52097 85.8145 8.20924 85.9993 8.91 86L87.09 86C89.2991 85.9977 91.0882 84.205 91.0859 81.9959 91.0852 81.2951 90.9004 80.6069 90.55 80ZM48 53.81C49.7287 53.81 51.13 55.2113 51.13 56.94 51.13 58.6687 49.7287 60.07 48 60.07 46.2713 60.07 44.87 58.6687 44.87 56.94 44.8755 55.2136 46.2736 53.8155 48 53.81ZM39.55 42.22 45.45 52.52C43.8625 53.427 42.8791 55.1117 42.87 56.94L31 56.94C31.0112 50.857 34.2717 45.2436 39.55 42.22ZM48 74C45.0326 73.9905 42.1194 73.2045 39.55 71.72L45.45 61.37C47.0167 62.3091 48.9733 62.3091 50.54 61.37L56.46 71.71C53.9008 73.2286 50.9758 74.0203 48 74ZM53.14 57C53.1309 55.1717 52.1475 53.487 50.56 52.58L56.46 42.28C61.7159 45.2954 64.9695 50.8806 65 56.94Z"/></svg>