<svg viewBox="0 0 96 96" xmlns="http://www.w3.org/2000/svg" xmlns:xlink="http://www.w3.org/1999/xlink" id="Icons_Spider" overflow="hidden"><path d="M87.445 23.744C88.4082 22.3959 88.0961 20.5222 86.748 19.559 85.3999 18.5958 83.5262 18.9079 82.563 20.256L72.974 33.68 58.413 41.389 68 27.961 68 5C68 3.34315 66.6569 2 65 2 63.3431 2 62 3.34315 62 5L62 26.039 53.582 37.83C53.243 37.66 52.897 37.504 52.541 37.365L52.982 34.283C53.1383 33.1895 52.3785 32.1763 51.285 32.02 50.1915 31.8637 49.1783 32.6235 49.022 33.717L48.622 36.531C48.416 36.521 48.214 36.5 48.006 36.5 47.798 36.5 47.595 36.521 47.39 36.531L46.99 33.717C46.8337 32.6235 45.8205 31.8637 44.727 32.02 43.6335 32.1763 42.8737 33.1895 43.03 34.283L43.47 37.365C43.115 37.504 42.77 37.66 42.43 37.83L34 26.039 34 5C34 3.34315 32.6569 2 31 2 29.3431 2 28 3.34315 28 5L28 27.961 37.6 41.389 23.034 33.68 13.445 20.256C12.4818 18.9079 10.6081 18.5958 9.26 19.559 7.91187 20.5222 7.59981 22.3959 8.563 23.744L18.974 38.32 35.37 47 27.844 47 15.46 58.259 10.2 71.923C9.60085 73.4677 10.3674 75.2057 11.9121 75.8048 13.4568 76.404 15.1948 75.6375 15.794 74.0927 15.796 74.0875 15.798 74.0822 15.8 74.077L20.544 61.741 30.164 53 36.172 53C36.192 53.058 36.215 53.115 36.236 53.173L32.465 56.189 27 71.48 27 91C27 92.6569 28.3431 94 30 94 31.6569 94 33 92.6569 33 91L33 72.52 37.539 59.811 39.223 58.463C38.7386 60.2686 38.4954 62.1305 38.5 64 38.5 72 42.762 78.5 48 78.5 53.238 78.5 57.5 72 57.5 64 57.5046 62.1305 57.2614 60.2686 56.777 58.463L58.461 59.811 63 72.52 63 91C63 92.6569 64.3431 94 66 94 67.6569 94 69 92.6569 69 91L69 71.48 63.543 56.189 59.772 53.173C59.793 53.115 59.816 53.058 59.836 53L65.844 53 75.46 61.741 80.2 74.077C80.7991 75.6217 82.5371 76.3883 84.0818 75.7891 85.6204 75.1923 86.3881 73.4649 85.8 71.923L80.548 58.259 68.164 47 60.638 47 77.038 38.32Z"/></svg>