<svg viewBox="0 0 96 96" xmlns="http://www.w3.org/2000/svg" xmlns:xlink="http://www.w3.org/1999/xlink" id="Icons_At" overflow="hidden"><path d="M55.125 58.329 54.915 58.329C52.899 64.349 48.9517 67.3583 43.073 67.357 39.5512 67.4656 36.186 65.9004 34 63.137 31.7047 60.3237 30.557 56.5373 30.557 51.778 30.557 45.4787 32.132 40.2453 35.282 36.078 38.1359 32.0548 42.8006 29.7104 47.732 29.821 49.608 29.7958 51.4444 30.3615 52.981 31.438 54.3937 32.3492 55.4471 33.7217 55.962 35.322L56.088 35.322C56.172 34.5387 56.382 32.929 56.718 30.493L63.689 30.493C62.3743 45.2717 61.717 52.8007 61.717 53.08 61.717 58.6227 63.159 61.3943 66.043 61.395 68.673 61.395 70.8563 59.848 72.593 56.754 74.3297 53.66 75.1963 49.65 75.193 44.724 75.193 37.4453 72.8483 31.5033 68.159 26.898 63.4697 22.2927 56.9697 19.99 48.659 19.99 41.1563 19.7888 33.9318 22.8349 28.838 28.347 23.6027 33.9157 20.985 40.8863 20.985 49.259 20.985 57.5183 23.5043 64.181 28.543 69.247 33.5817 74.313 40.3707 76.8463 48.91 76.847 54.8483 77.0063 60.7465 75.8282 66.168 73.4L66.168 79.867C61.2687 81.9377 55.152 82.9737 47.818 82.975 37.5153 82.975 29.2153 79.8953 22.918 73.736 16.6207 67.5767 13.4707 59.5157 13.468 49.553 13.468 39.307 16.7993 30.8103 23.462 24.063 30.1247 17.3157 38.6353 13.9423 48.994 13.943 58.708 13.943 66.7493 16.7707 73.118 22.426 79.4867 28.0813 82.671 35.458 82.671 44.556 82.671 51.2193 80.9423 56.686 77.485 60.956 74.0277 65.226 69.8077 67.3593 64.825 67.356 58.385 67.3567 55.1517 64.3477 55.125 58.329ZM48.448 35.779C45.368 35.779 42.8837 37.2907 40.995 40.314 38.9997 43.7365 38.0166 47.6549 38.16 51.614 38.0207 54.143 38.69 56.6507 40.071 58.774 41.2156 60.4575 43.1358 61.4459 45.171 61.399 48.2497 61.399 50.6853 59.81 52.478 56.632 54.2707 53.454 55.167 49.2467 55.167 44.01 55.167 38.5233 52.9273 35.7797 48.448 35.779Z"/></svg>